<?xml version="1.0" encoding="UTF-8" standalone="no"?>
<!DOCTYPE svg PUBLIC "-//W3C//DTD SVG 1.1//EN"
 "http://www.w3.org/Graphics/SVG/1.1/DTD/svg11.dtd">
<!-- Generated by graphviz version 2.38.0 (20140413.2041)
 -->
<!-- Title: G Pages: 1 -->
<svg width="283pt" height="618pt"
 viewBox="0.00 0.00 283.00 618.00" xmlns="http://www.w3.org/2000/svg" xmlns:xlink="http://www.w3.org/1999/xlink">
<g id="graph0" class="graph" transform="scale(1 1) rotate(0) translate(4 614)">
<title>G</title>
<polygon fill="white" stroke="none" points="-4,4 -4,-614 279,-614 279,4 -4,4"/>
<g id="clust1" class="cluster"><title>cluster_Global</title>
<path fill="none" stroke="gray" d="M20,-8C20,-8 255,-8 255,-8 261,-8 267,-14 267,-20 267,-20 267,-590 267,-590 267,-596 261,-602 255,-602 255,-602 20,-602 20,-602 14,-602 8,-596 8,-590 8,-590 8,-20 8,-20 8,-14 14,-8 20,-8"/>
<text text-anchor="middle" x="137.5" y="-589.2" font-family="Times,serif" font-size="11.00" fill="gray">Global</text>
</g>
<g id="clust2" class="cluster"><title>cluster_\ReusingDublin</title>
<path fill="none" stroke="gray" d="M28,-16C28,-16 247,-16 247,-16 253,-16 259,-22 259,-28 259,-28 259,-562 259,-562 259,-568 253,-574 247,-574 247,-574 28,-574 28,-574 22,-574 16,-568 16,-562 16,-562 16,-28 16,-28 16,-22 22,-16 28,-16"/>
<text text-anchor="middle" x="137.5" y="-561.2" font-family="Times,serif" font-size="11.00" fill="gray">ReusingDublin</text>
</g>
<!-- \\ReusingDublin\\Modal -->
<g id="node1" class="node"><title>\\ReusingDublin\\Modal</title>
<polygon fill="none" stroke="black" points="242.5,-546 188.5,-546 188.5,-510 242.5,-510 242.5,-546"/>
<text text-anchor="middle" x="215.5" y="-525.2" font-family="Courier,monospace" font-size="11.00">Modal</text>
</g>
<!-- \\ReusingDublin\\Controller -->
<g id="node4" class="node"><title>\\ReusingDublin\\Controller</title>
<polygon fill="none" stroke="black" points="108,-330 24,-330 24,-294 108,-294 108,-330"/>
<text text-anchor="middle" x="66" y="-309.2" font-family="Courier,monospace" font-size="11.00">Controller</text>
</g>
<!-- \\ReusingDublin\\Modal&#45;&gt;\\ReusingDublin\\Controller -->
<g id="edge1" class="edge"><title>\\ReusingDublin\\Modal&#45;&gt;\\ReusingDublin\\Controller</title>
<path fill="none" stroke="black" d="M189.032,-509.851C185.823,-507.062 182.717,-504.08 180,-501 134.773,-449.724 97.5876,-377.85 79.2814,-339.183"/>
<polygon fill="none" stroke="black" points="82.4428,-337.68 75.0407,-330.1 76.1002,-340.642 82.4428,-337.68"/>
</g>
<!-- \\ReusingDublin\\Index -->
<g id="node2" class="node"><title>\\ReusingDublin\\Index</title>
<polygon fill="none" stroke="black" points="242.5,-492 188.5,-492 188.5,-456 242.5,-456 242.5,-492"/>
<text text-anchor="middle" x="215.5" y="-471.2" font-family="Courier,monospace" font-size="11.00">Index</text>
</g>
<!-- \\ReusingDublin\\Index&#45;&gt;\\ReusingDublin\\Controller -->
<g id="edge2" class="edge"><title>\\ReusingDublin\\Index&#45;&gt;\\ReusingDublin\\Controller</title>
<path fill="none" stroke="black" d="M189.835,-455.734C186.433,-452.92 183.061,-449.962 180,-447 143.971,-412.137 107.72,-366.525 86.3236,-338.253"/>
<polygon fill="none" stroke="black" points="88.9801,-335.962 80.1768,-330.066 83.3823,-340.165 88.9801,-335.962"/>
</g>
<!-- \\ReusingDublin\\Model -->
<g id="node3" class="node"><title>\\ReusingDublin\\Model</title>
<polygon fill="none" stroke="black" points="242.5,-438 188.5,-438 188.5,-402 242.5,-402 242.5,-438"/>
<text text-anchor="middle" x="215.5" y="-417.2" font-family="Courier,monospace" font-size="11.00">Model</text>
</g>
<!-- \\ReusingDublin\\Gravatar -->
<g id="node5" class="node"><title>\\ReusingDublin\\Gravatar</title>
<polygon fill="none" stroke="black" points="251,-384 180,-384 180,-348 251,-348 251,-384"/>
<text text-anchor="middle" x="215.5" y="-363.2" font-family="Courier,monospace" font-size="11.00">Gravatar</text>
</g>
<!-- \\ReusingDublin\\Error -->
<g id="node6" class="node"><title>\\ReusingDublin\\Error</title>
<polygon fill="none" stroke="black" points="242.5,-330 188.5,-330 188.5,-294 242.5,-294 242.5,-330"/>
<text text-anchor="middle" x="215.5" y="-309.2" font-family="Courier,monospace" font-size="11.00">Error</text>
</g>
<!-- \\ReusingDublin\\Api -->
<g id="node7" class="node"><title>\\ReusingDublin\\Api</title>
<polygon fill="none" stroke="black" points="242.5,-276 188.5,-276 188.5,-240 242.5,-240 242.5,-276"/>
<text text-anchor="middle" x="215.5" y="-255.2" font-family="Courier,monospace" font-size="11.00">Api</text>
</g>
<!-- \\ReusingDublin\\Config -->
<g id="node8" class="node"><title>\\ReusingDublin\\Config</title>
<polygon fill="none" stroke="black" points="244,-222 187,-222 187,-186 244,-186 244,-222"/>
<text text-anchor="middle" x="215.5" y="-201.2" font-family="Courier,monospace" font-size="11.00">Config</text>
</g>
<!-- \\ReusingDublin\\Gmaps -->
<g id="node9" class="node"><title>\\ReusingDublin\\Gmaps</title>
<polygon fill="none" stroke="black" points="242.5,-168 188.5,-168 188.5,-132 242.5,-132 242.5,-168"/>
<text text-anchor="middle" x="215.5" y="-147.2" font-family="Courier,monospace" font-size="11.00">Gmaps</text>
</g>
<!-- \\ReusingDublin\\Gmaps&#45;&gt;\\ReusingDublin\\Controller -->
<g id="edge3" class="edge"><title>\\ReusingDublin\\Gmaps&#45;&gt;\\ReusingDublin\\Controller</title>
<path fill="none" stroke="black" d="M189.835,-168.266C186.433,-171.08 183.061,-174.038 180,-177 143.971,-211.863 107.72,-257.475 86.3236,-285.747"/>
<polygon fill="none" stroke="black" points="83.3823,-283.835 80.1768,-293.934 88.9801,-288.038 83.3823,-283.835"/>
</g>
<!-- \\ReusingDublin\\Site -->
<g id="node10" class="node"><title>\\ReusingDublin\\Site</title>
<polygon fill="none" stroke="black" points="242.5,-114 188.5,-114 188.5,-78 242.5,-78 242.5,-114"/>
<text text-anchor="middle" x="215.5" y="-93.2" font-family="Courier,monospace" font-size="11.00">Site</text>
</g>
<!-- \\ReusingDublin\\Site&#45;&gt;\\ReusingDublin\\Controller -->
<g id="edge4" class="edge"><title>\\ReusingDublin\\Site&#45;&gt;\\ReusingDublin\\Controller</title>
<path fill="none" stroke="black" d="M189.032,-114.149C185.823,-116.938 182.717,-119.92 180,-123 134.773,-174.276 97.5876,-246.15 79.2814,-284.817"/>
<polygon fill="none" stroke="black" points="76.1002,-283.358 75.0407,-293.9 82.4428,-286.32 76.1002,-283.358"/>
</g>
<!-- \\ReusingDublin\\View -->
<g id="node11" class="node"><title>\\ReusingDublin\\View</title>
<polygon fill="none" stroke="black" points="242.5,-60 188.5,-60 188.5,-24 242.5,-24 242.5,-60"/>
<text text-anchor="middle" x="215.5" y="-39.2" font-family="Courier,monospace" font-size="11.00">View</text>
</g>
</g>
</svg>
